<svg id="Layer_1" data-name="Layer 1" xmlns="http://www.w3.org/2000/svg" width="70" height="56" viewBox="0 0 70 56">
  <defs>
    <style>
      .cls-1 {
        fill: #eeeeef;
      }

      .cls-2 {
        fill: #fff;
      }

      .cls-3 {
        fill: #f48889;
      }

      .cls-4 {
        fill: none;
        stroke: #000;
        stroke-linecap: round;
        stroke-linejoin: round;
        stroke-width: 1.5px;
      }

      .cls-5 {
        fill: #7e7c88;
      }

      .cls-6 {
        fill: #a3a1aa;
      }

      .cls-7 {
        fill: #ef3c3c;
      }

      .cls-8 {
        fill: #efbc9b;
      }
    </style>
  </defs>
  <polygon class="cls-1" points="65.333 9.67 59 15.541 59 25 49.938 25 46.6 19 44 19 44 7 29 7 29 25 24 25 24 15.1 20.813 12 10.302 12 7 15.053 7 41 4 41 4 56 70 56 70 13.996 65.333 9.67"/>
  <path class="cls-2" d="M62.99671,32.21575c1.36869,0,2.47862-1.50543,2.47862-3.36247S64.3654,25.4908,62.99671,25.4908c-1.36888,0-2.47862,1.50543-2.47862,3.36248S61.62783,32.21575,62.99671,32.21575Z"/>
  <path class="cls-3" d="M61.80543,25.10646h1.92142v7.68565H61.80543a3.84283,3.84283,0,0,1,0-7.68565Z"/>
  <path class="cls-4" d="M19.4511,35.12336l6.02042,6.014"/>
  <path class="cls-5" d="M29.32075,25.13208H15.35849v9.77358H29.32075Z"/>
  <path class="cls-6" d="M30.01887,22.33962H14.66038V26.5283H30.01887Z"/>
  <path class="cls-4" d="M37.08326,35.10427H15.20478"/>
  <path class="cls-4" d="M55.87948,24.61276l-2.29929-5.06559H49.41346"/>
  <path d="M30.0573,56.36777a7.08361,7.08361,0,1,0-7.08361-7.0836A7.08358,7.08358,0,0,0,30.0573,56.36777Z"/>
  <path class="cls-5" d="M30.0573,53.77393a4.4897,4.4897,0,1,0-4.48971-4.4897A4.48968,4.48968,0,0,0,30.0573,53.77393Z"/>
  <path class="cls-2" d="M30.05726,52.07669a2.79246,2.79246,0,1,0-2.79245-2.79246A2.79249,2.79249,0,0,0,30.05726,52.07669Z"/>
  <path d="M65.21914,56.36777a7.08361,7.08361,0,1,0-7.08361-7.0836A7.0837,7.0837,0,0,0,65.21914,56.36777Z"/>
  <path class="cls-5" d="M65.21914,53.77393a4.4897,4.4897,0,1,0-4.48976-4.4897A4.48992,4.48992,0,0,0,65.21914,53.77393Z"/>
  <path class="cls-2" d="M65.21913,52.07669a2.79246,2.79246,0,1,0-2.79245-2.79246A2.79234,2.79234,0,0,0,65.21913,52.07669Z"/>
  <path class="cls-7" d="M45.93457,48.80388H20.162l1.99187-6.315A10.24742,10.24742,0,0,1,31.89545,35.354H40.862Z"/>
  <path class="cls-7" d="M65.62264,46.07547H40.49057v2.79245H65.62264Z"/>
  <path class="cls-3" d="M40.49057,50.26415H19.54717l0-.50476a10.11013,10.11013,0,0,1,.34887-2.75363A10.52551,10.52551,0,0,1,29.9554,39.09434h.0893a9.70746,9.70746,0,0,1,2.93143.40083,10.79235,10.79235,0,0,1,7.51444,10.37475Z"/>
  <path class="cls-8" d="M44.51272,35.99446H30.42236V30.93474a1.33867,1.33867,0,0,1,1.345-1.345h11.394a1.345,1.345,0,0,1,1.35139,1.3514Z"/>
  <path class="cls-7" d="M55.56725,20.95621,67.6017,47.15787H49.89908c4.27194-.64047,7.46149-1.98546,7.08361-5.66177l-4.32958-9.08828A9.06919,9.06919,0,0,1,54.44,22.08984Z"/>
  <path class="cls-3" d="M74,50.26415H57.24528v-.32024a8.88162,8.88162,0,0,1,.63606-3.30982,8.66373,8.66373,0,0,1,1.81578-2.806A8.35871,8.35871,0,0,1,62.41579,41.954a8.16115,8.16115,0,0,1,6.41383,0,8.36249,8.36249,0,0,1,2.71861,1.87408,8.66255,8.66255,0,0,1,1.81571,2.806A8.8852,8.8852,0,0,1,74,49.94391Z"/>
</svg>
