<svg id="Layer_1" data-name="Layer 1" xmlns="http://www.w3.org/2000/svg" width="70" height="56" viewBox="0 0 70 56">
  <defs>
    <style>
      .cls-1 {
        fill: #bbbac0;
      }

      .cls-2 {
        fill: #dbdbde;
      }

      .cls-3 {
        fill: #ef3c3c;
      }

      .cls-10, .cls-4, .cls-5 {
        fill: none;
      }

      .cls-10, .cls-4, .cls-9 {
        stroke: #000;
      }

      .cls-10, .cls-4, .cls-8, .cls-9 {
        stroke-linejoin: round;
      }

      .cls-10, .cls-4, .cls-5, .cls-9 {
        stroke-width: 1.5px;
      }

      .cls-5 {
        stroke: #ef3c3c;
      }

      .cls-5, .cls-6, .cls-7 {
        stroke-miterlimit: 10;
      }

      .cls-6 {
        fill: #a3a1aa;
        stroke: #a3a1aa;
      }

      .cls-7 {
        fill: #f48889;
        stroke: #f48889;
      }

      .cls-8 {
        fill: #efbc9b;
        stroke: #efbc9b;
        stroke-width: 2px;
      }

      .cls-9 {
        fill: #fff;
      }

      .cls-10 {
        stroke-linecap: round;
      }

      .cls-11 {
        fill: #b07157;
      }
    </style>
  </defs>
  <path class="cls-1" d="M60.98562,8.90092H42.68287l.73211-4.2H60.25351Z"/>
  <path class="cls-2" d="M64.4,16.8V7.08028L60.2,4.70092V16.8H54.6v.36606a3.74726,3.74726,0,0,1-1.02515,2.58837,3.39237,3.39237,0,0,1-4.9497,0A3.74726,3.74726,0,0,1,47.6,17.16606V16.8H43.4V4.70092L39.2,7.10956V16.8h-7V57.4H70V16.8Z"/>
  <path class="cls-1" d="M40.6,23.8H58.70345a2.79875,2.79875,0,0,1,2.04815.91124A3.23157,3.23157,0,0,1,61.6,26.91111V30.8H43.49655a2.79875,2.79875,0,0,1-2.04815-.91124A3.23157,3.23157,0,0,1,40.6,27.68889Z"/>
  <path class="cls-3" d="M13.60774,54.42576l18.11241-6.03258,1.08352-13.92474L12.1362,41.35027Z"/>
  <path class="cls-4" d="M23.06661,26.10782l-2.167-14.0858L12.1362,18.28156"/>
  <path class="cls-5" d="M30.5927,57.41284H13.75416L10.82572,25.93211H33.52114Z"/>
  <path class="cls-6" d="M30.62243,24.5h-16.898l1.288-2.8h14.315Z"/>
  <path class="cls-7" d="M34.77343,27.3h-25.2l.7-2.8h23.8Z"/>
  <path class="cls-8" d="M43.57583,55.94862h-19.348L20.97727,44.8H46.8264Z"/>
  <path class="cls-9" d="M20.78242,44.23486l2.30615-8.30213a3.6604,3.6604,0,0,1,3.52877-2.67952h14.6056a3.66059,3.66059,0,0,1,3.52877,2.67952l2.26954,8.30213"/>
  <path class="cls-10" d="M48.60183,43.9164h-29.4"/>
  <g>
    <path class="cls-11" d="M33.90183,51.351a1.25923,1.25923,0,1,0-1.25923-1.25923A1.25917,1.25917,0,0,0,33.90183,51.351Z"/>
    <path class="cls-11" d="M27.59837,51.351a1.25923,1.25923,0,1,0-1.25923-1.25923A1.25916,1.25916,0,0,0,27.59837,51.351Z"/>
    <path class="cls-11" d="M40.2053,51.351a1.25923,1.25923,0,1,0-1.25923-1.25923A1.25921,1.25921,0,0,0,40.2053,51.351Z"/>
  </g>
</svg>
